<svg version="1.1" id="Layer_1" xmlns="http://www.w3.org/2000/svg" xmlns:xlink="http://www.w3.org/1999/xlink" x="0px" y="0px"
	 width="1028.099px" height="682.243px" viewBox="0 0 1028.099 682.243" style="enable-background:new 0 0 1028.099 682.243;"
	 xml:space="preserve">
<style type="text/css">
<![CDATA[
	.st0{fill-rule:evenodd;clip-rule:evenodd;fill:none;}
	.st1{fill-rule:evenodd;clip-rule:evenodd;}
	.st2{fill:#FF0000;fill-opacity:0.5;}
	.st3{fill:none;}
]]>
</style>
<g>
	<g>
		<path class="st1" d="M895.688,326.206c0.085,0.065,0.171,0.189,0.25,0.186c2.818-0.147,3.771,2.286,5.322,3.873
			c0.348,0.354,0.693,0.915,0.218,1.396c-0.542,0.547-0.894-0.157-1.323-0.333c-0.291-0.118-0.582-0.233-0.895-0.359
			c-0.639,0.823-0.354,1.515,0.193,2.221c0.282,0.365,0.242,0.793-0.111,1.125c-0.344,0.324-0.751,0.314-1.158,0.129
			c-1.111-0.51-2.057-1.39-3.729-1.653c1.869,2.532,4.507,2.889,6.845,3.517c1.648,0.442,1.528,1.803,1.925,2.722
			c0.379,0.881-0.978,1.457-1.673,2.043c-0.47,0.397-1.088,0.003-1.383-0.376c-1.121-1.438-3.537-1.308-4.087-3.449
			c-0.098-0.383-0.696-0.401-1.125-0.276c-0.335,0.099-0.521,0.657-0.495,0.662c1.783,0.337,1.264,3.017,3.304,3.168
			c1.009,0.074,1.96,0.474,2.491,1.631c0.636,1.388,1.776-0.222,2.404,0.14c1.264,0.729,1.627,0.801,1.199-0.812
			c-0.23-0.867,0.367-1.089,1.109-0.976c0.399,0.062,0.885,0.381,1.167,0.244c0.944-0.455,1.89-1.236,2.922-0.76
			c1.198,0.555,1.455,1.991,2.136,3.032c0.574,0.877,1.046,1.822,1.568,2.734c0.156,0.274,0.303,0.562,0.503,0.802
			c0.812,0.981,0.467,1.942-0.032,2.896c-0.668,1.277-1.319-1.058-2.156,0.165c2.79,2.271,4.961,5.089,7.225,8.52
			c-1.749-0.376-2.02-1.604-2.72-2.355c-0.632-0.677-1.226-1.027-1.185,0.436c0.024,0.845-0.576,0.668-1.08,0.468
			c-1.147-0.456-2.145-1.276-3.339-1.47c-0.422,0.338-0.25,0.593-0.067,0.842c0.495,0.669,1.687,0.923,1.636,1.806
			c-0.068,1.189-1.818,0.6-1.918,0.947c-0.447,1.567-2.015,1.891-2.847,2.964c-1.72,2.223-1.711,2.229-4.538,2.271
			c0.221,2.072,0.384,2.318,1.713,1.434c2.286-1.524,5.124-1.067,7.476-2.629c2.014-1.337,3.581,0.022,3.729,2.666
			c0.051,0.927-0.158,1.939,0.912,2.504c0.618-0.763,0.307-1.618,0.037-2.356c-0.623-1.7,0.234-2.487,1.595-3.203
			c1.334-0.703,2.312-0.333,2.858,0.879c0.601,1.334,1.025,2.767,1.352,4.195c0.257,1.114,0.134,2.2-1.529,1.894
			c-0.957-0.178-1.305,0.359-1.494,1.185c-0.256,1.126-0.52,2.257-0.876,3.354c-0.914,2.825-2.046,3.618-5.047,3.636
			c-0.316,0.002-0.632,0.002-0.946,0c-3.347-0.022-3.347-0.022-2.633-3.503c-1.474,0.894-3.184,1.023-2.871,3.386
			c0.127,0.938-1.156,1.042-2.006,0.96c-1.766-0.172-3.521-0.416-5.518-0.658c0.478,1.358,1.389,1.858,2.415,1.729
			c2.606-0.331,4.985,1.083,7.587,0.82c0.814-0.083,1.418,0.742,0.781,1.514c-0.878,1.061-0.948,2.04-0.82,3.403
			c0.248,2.649-3.183,4.568-5.537,3.234c-0.455-0.26-0.815-0.619-1.377-0.544c-0.204,0.028-0.4,0.105-0.599,0.158
			c0.581,0.392,1.188,0.747,1.735,1.179c2.085,1.636,3.833,1.356,6.034-0.542c1.658-1.43,3.636-2.334,5.925-1.013
			c-0.865,4.046-3.104,6.774-7.292,7.696c-1.729,0.381-3.28,1.469-5.149,1.309c-0.495-0.042-0.693,0.227-0.848,0.685
			c-0.771,2.288-2.755,3.648-4.259,5.363c-2.091,2.38-4.005,4.866-5.506,7.658c-0.597,1.114-1.137,2.236-1.063,3.573
			c0.097,1.776-1.205,3.212-1.262,5c-0.026,0.836-0.758,1.441-1.658,1.709c-0.906,0.268-1.764,0.711-2.678,0.929
			c-8.842,2.091-12.613,8.556-14.469,16.69c-0.07,0.305-0.031,0.802-0.207,0.893c-1.92,0.985-1.537,2.146-0.352,3.432
			c0.123,0.131,0.156,0.395,0.145,0.591c-0.075,1.145-3.217,4.845-4.509,5.092c-1.484,0.28-2.14,0.612-1.722,2.458
			c0.385,1.697-2.083,3.844-4.923,4.785c0.975,2.771-0.41,4.433-2.81,5.604c-1.121,0.549-2.312,1.009-3.096,2.102
			c-0.223,0.312-0.853,0.746-0.973,0.662c-1.681-1.18-2.674,1.446-4.274,0.753c-0.196-0.086-0.643,0.462-0.708,0.916
			c0.121,0.143,0.22,0.374,0.367,0.409c1.262,0.309,2.673,0.674,2.728,2.178c0.062,1.704-1.761,1.846-2.824,2.583
			c-0.738,0.513-1.378,0.103-1.962-0.43c-1.152-1.046-2.034-2.336-3.145-3.439c0.839,1.76,0.333,4.408,3.35,4.688
			c0.776,0.072,0.797,0.812,0.394,1.483c-0.929,1.544-2.728,2.248-3.644,3.836c-0.194,0.341-0.879,0.208-0.377,0.99
			c0.628,0.984,0.115,3.042-0.746,3.889c-0.143,0.141-0.388,0.169-0.558,0.287c-1.116,0.769,0.854,1.374,0.06,2.392
			c-0.685,0.876-1.557,0.762-2.296,1.176c-0.057,0.033-0.088,0.262-0.055,0.284c2.366,1.571-0.542,3.734,0.708,5.792
			c0.811,1.337-0.657,3.514-2.391,4.724c0.174,0.871,1.86,0.266,1.581,1.448c-0.262,1.109-0.591,2.246-1.702,2.88
			c-0.683,0.39-1.913,0.346-1.757,1.448c0.159,1.112,0.702,2.18,1.149,3.234c0.123,0.291,0.52,0.229,0.811,0.064
			c0.634-0.357,0.969-0.168,0.975,0.557c0.007,1.312,0.002,2.625,0.002,4.1c-1.15-0.55-0.36-1.891-1.578-2.127
			c0.695,6.302,3.415,11.819,6.065,17.414c2.557,5.398,5.868,10.337,8.816,15.49c1.374,2.4,3.182,4.523,5.329,6.479
			c2.685,2.445,4.945,5.422,7.518,8.047c0.616,0.629,0.641,1.32,0.402,2.03c-1.451,4.332,0.684,7.919,2.843,11.164
			c3.263,4.901,6.422,9.842,9.293,14.977c0.663,1.187,1.453,2.327,2.335,3.361c3.086,3.604,4.841,7.751,5.328,12.456
			c0.65,6.261,1.8,12.477,1.215,18.83c-0.148,1.63-0.621,3.067-1.323,4.479c-0.958,1.929-0.872,3.785,0.005,5.758
			c0.424,0.951,1.807,1.493,1.152,2.991c-0.766,1.749-0.555,3.948-2.503,5.292c-0.372-1.737,2.015-2.862,0.707-5.036
			c-0.59,1.974-1.816,2.565-3.389,3.263c-2.204,0.978-4.22,2.053-6.717,2.213c-1.154,0.073-2.006,1.439-3.325,1.667
			c-1.961,0.339-3.328-0.532-3.57-2.485c-0.115-0.934,0.365-1.444,1.314-1.097c0.684,0.251,1.283,0.716,1.941,1.043
			c0.586,0.291,1.293,0.493,1.701-0.154c0.54-0.856-0.201-1.415-0.805-1.752c-0.716-0.4-1.544-0.658-2.354-0.819
			c-1.229-0.244-2.166-0.801-2.622-1.99c-0.739-1.935-2.816-3.3-2.089-5.913c0.246-0.886-1.137-1.623-2.262-1.79
			c-2.382-0.353-4.725-1.123-7.182-0.619c-1.009,0.207-1.434-0.079-2.101-1.111c-1.418-2.198-2.439-4.501-3.45-6.888
			c-1.128-2.664-1.246-2.736-3.8-4.263c-2.35-1.406-3.085-3.467-3.303-5.929c-0.074-0.825,0.15-1.702-0.416-2.436
			c-0.379-0.493-0.737-1.081-1.513-0.854c-1.043,0.31-0.361,0.992-0.282,1.517c0.062,0.403,0.236,0.789,0.424,1.381
			c-2.532,0.654-4.098-0.9-5.395-2.354c-1.718-1.925-2.352-4.708-4.697-6.214c-0.19-0.12-0.312-0.594-0.237-0.83
			c0.532-1.68-0.669-2.182-1.778-2.851c-1.715-1.035-1.779-1.145-0.558-2.828c1.3-1.796,1.669-4.052,3.05-5.794
			c0.238-0.302,0.369-0.793,0.344-1.183c-0.051-0.785,0.303-1.981-0.688-2.177c-1.303-0.256-0.264,1.42-1.286,1.836
			c-0.971-0.903-1.417-2.481-2.842-3.056c-0.393-0.157-0.833-0.347-1.09,0.149c-0.191,0.374-0.179,0.812,0.046,1.2
			c0.051,0.086,0.114,0.206,0.195,0.229c2.839,0.785,0.871,2.871,1.095,4.328c0.11,0.727-1.899,1.405-2.483,0.811
			c-1.086-1.107-2.241-2.18-2.188-4.007c0.09-3.045,0.066-6.068,0.601-9.106c0.668-3.801,1.277-7.687-0.35-11.451
			c-0.227-0.524-0.137-1.006-0.021-1.527c0.139-0.626,0.213-1.385-0.41-1.718c-2.118-1.136-2.724-3.631-4.6-4.961
			c-0.072-0.052-0.217-0.053-0.308-0.023c-3.333,1.092-5.165-1.351-7.227-3.134c-1.266-1.096-2.364-2.368-4.071-2.824
			c-0.792-0.212-1.203-0.868-1.338-1.616c-0.273-1.497-1-2.466-2.578-2.761c-0.967-0.181-1.613-0.895-2.236-1.643
			c-3.812-4.571-8.841-5.458-14.38-4.6c-1.227,0.189-2.123,0.923-1.983,2.391c0.067,0.709,0.113,1.421,0.184,2.332
			c-2.487-0.128-4.018,1.557-5.738,2.893c-1.08,0.839-2.046,2.101-3.264,2.429c-3.264,0.879-6,3.25-9.709,3.28
			c0.277-4.966-4.338-5.688-7.274-8.018c0.962-1.018,1.65,0.346,2.477,0.195c-0.493-1.559-1.707-1.519-2.831-1.73
			c-0.952-0.179-1.859-0.112-1.902-1.796c-0.027-1.156-1.65-1.02-2.77-0.467c0.191,1.215,2.215,0.788,1.635,2.721
			c-4.351-2.431-9.267-2.666-14.009-3.847c1.671-0.374,3.342-0.75,5.097-1.145c-0.229-0.282-0.429-0.713-0.586-0.696
			c-2.758,0.268-5.814-0.669-8.04,1.814c-0.425,0.474-0.705,0.945-1.421,1.051c-3.561,0.525-6.849,1.996-10.26,3.033
			c-1.794,0.544-3.531,1.058-5.457,0.043c-0.898-0.472-1.955,0.715-2.434,1.38c-1.295,1.794-3.195,2.252-5.051,2.901
			c-0.279,0.098-0.611,0.044-0.99,0.064c0.099-0.918,1.23-0.791,1.389-1.448c0.229-0.952-0.687-1.242-1.253-1.572
			c-1.425-0.831-2.025-2.081-2.117-3.629c-0.098-1.676-0.705-3.025-2.337-4.007c-1.226,2.871-0.695,6.032-1.752,8.773
			c-1.216,0.329-2.169-0.26-3.188-0.422c-0.732-0.117-1.622-0.24-2.003,0.504c-0.693,1.352-1.601,1.494-2.848,0.897
			c-0.599-0.286-1.215-0.253-1.805,0.106c-0.551,0.335-1.246,0.691-1.783,0.332c-2.568-1.722-4.701-0.057-6.949,0.772
			c-1.281,0.47-2.99,1.687-3.767,1.251c-1.953-1.097-1.828,0.308-2.417,1.253c-1.007,1.622-2.282,2.955-4.426,2.98
			c-1.042,0.014-1.579,0.258-1.471,1.665c0.146,1.878-2.147,2.038-3.208,3.366c1.055,1.011,2.805,0.544,3.63,1.904
			c0.236,0.391,1.211,0.265,1.411-0.592c0.071-0.304,0.079-0.628,0.077-0.94c-0.009-1.536,1.143-2.133,2.264-2.038
			c0.997,0.085,1.688,1.173,1.521,2.278c-0.17,1.13,0.623,1.926,0.744,2.919c-0.636,0.604-1.24-0.223-1.768-0.033
			c-0.863,0.312-1.2,1.275-2.074,1.784c-1.018,0.592,0.706,1.125,0.727,1.869c-0.553,0.792-1.383-0.584-2.316,0.592
			c-1.026,1.295-1.147,1.559,0.201,2.346c1.15,0.671,2.593,0.992,3.216,2.396c0.077,0.177,0.317,0.45,0.416,0.426
			c2.272-0.602,4.029,1.599,6.204,1.164c0.918-0.187,1.46,0.112,1.865,0.725c0.447,0.677,0.562,1.618,1.629,1.681
			c-0.277,1.014,1.643,1.834,0.854,2.21c-1.025,0.491-1.438,2.555-3.115,1.511c-0.585-0.363-0.858-0.265-1.183,0.316
			c-0.299,0.535-0.753,0.979-1.312,1.68c-0.649-1.475,0.885-2.452,0.402-3.654c-1.511,1.239-1.409,1.107-2.905-0.068
			c-1.947-1.528-3.948-3.133-6.711-2.799c-0.582,0.07-0.814-0.099-1.053-0.752c-0.617-1.688-1.781-2.523-3.794-2.372
			c-1.695,0.13-3.136-1.631-5.051-1.158c0.077,1.39,1.238,1.337,2.043,1.679c1.302,0.557,1.85,1.734,1.295,2.778
			c-0.639,1.206-1.141,2.074-0.038,3.226c0.322,0.339-0.132,0.801-0.443,1.041c-0.813,0.634-1.676,1.206-2.555,1.829
			c-0.308-0.404-0.604-0.62-0.646-0.878c-0.325-2.023-1.312-3.102-3.514-3.334c-1.659-0.176-3.313,0.232-4.053,1.723
			c-0.324,0.655-0.581,1.382-1.051,1.911c-0.688,0.776-1.538,1.646-2.67,0.716c-0.826-0.677-1.537,0.011-2.231,0.162
			c-0.42-0.881,0.192-1.072,0.589-1.332c0.438-0.288,0.583-0.87,0.233-0.983c-1.725-0.554-2.79-3.092-5.249-1.582
			c-1.267,0.777-2.078-0.657-2.699-1.413c-0.914-1.113-1.9-1.92-3.278-2.264c-0.709-0.178-1.409-0.466-2.162-0.25
			c-1.149,0.33-1.942,0.36-2.163-1.242c-0.156-1.138-2.377-1.187-1.897-2.997c0.095-0.363-0.619-0.352-1.039-0.241
			c-0.914,0.241-1.825,0.511-2.754,0.676c-0.716,0.127-1.242-0.112-1.099-1.012c0.068-0.431,0.72-1.003-0.097-1.246
			c-0.447-0.134-1.132-0.045-1.498,0.228c-1.252,0.931-2.41,1.986-3.575,2.968c-0.042,1.07,1.149,1.539,1.145,2.539
			c-3.665,2.615-7.635,2.031-11.537,1.18c-3.591-0.783-7.128-1.829-10.655-2.867c-1.356-0.399-2.682-0.528-4.041-0.29
			c-3.395,0.593-6.78,1.233-10.172,1.838c-0.297,0.052-0.727-0.013-0.693,0.372c0.156,1.807-1.272,1.396-2.143,1.418
			c-1.435,0.035-2.628,0.538-3.863,1.176c-3.517,1.812-7.08,3.538-11.11,5.537c0.48-1.926,2.02-2.071,2.741-3.285
			c-1.473-0.422-2.787,0.88-4.258,0.271c0.073-1.237,1.096-2.246,0.888-3.531c-0.095-0.597,0.134-1.369-0.647-1.597
			c-0.643-0.187-1.225,0.205-1.678,0.644c-0.295,0.286-0.5,0.673-0.705,1.035c-0.205,0.367-0.385,0.708-0.823,0.882
			c-2.255,0.894-2.387,1.525-1.146,3.45c0.728,1.128,1.166,2.448,1.675,3.705c0.1,0.249,0.016,0.83-0.121,0.879
			c-1.706,0.616-1.985,2.955-3.54,3.325c-1.467,0.35-1.678,1.134-2.106,2.232c-2.065,5.306-6.156,8.15-11.588,9.33
			c-0.91,0.198-1.795,0.566-2.656,0.938c-0.653,0.281-1.322,0.514-0.935,1.604c0.279,0.782-0.514,1.176-1.097,0.721
			c-0.896-0.7-1.618-0.202-2.334,0.104c-1.136,0.482-2.125,0.889-2.943-0.511c-0.405-0.694-0.969-0.452-1.604-0.1
			c-3.368,1.869-3.491,1.825-6.171-0.953c-0.097-0.099-0.383-0.012-0.797-0.012c0.144,3.348,3.84,3.677,5.187,6.207
			c-1.136,0.694-2.264,1.407-3.414,2.083c-1.227,0.72-2.483,1.553-3.148-0.651c-0.117-0.395-0.544-0.617-1.024-0.372
			c-0.407,0.209-0.644,0.517-0.597,0.992c0.125,1.244,0.265,2.488,0.055,3.787c1.595,0.442,2.301-0.858,3.272-1.53
			c0.99-0.685,1.808-1.701,3.224-1.667c-0.007,0.986-0.663,1.235-1.139,1.548c-5.85,3.852-10.211,8.981-13.314,15.24
			c-0.234,0.47-0.657,1.947-1.338,1.005c-0.925-1.277-1.046-0.344-1.369,0.171c-0.273,0.435-0.41,0.963-0.573,1.462
			c-0.13,0.398-0.12,0.865-0.321,1.214c-0.733,1.277,0.058,3.78-2.654,3.485c-1.407-0.15-2.965,1.157-4.083-0.67
			c-0.818,1.936,0.432,2.107,1.541,2.481c1.147,0.388,2.249-0.117,3.847-0.248c-1.373,2.405-0.231,5.092-2.316,7.058
			c-0.563,0.531-0.425,1.863,0.133,2.69c1.745,2.581,2.731,5.313,2.188,8.49c-0.075,0.445,0.153,1.189,0.495,1.418
			c1.643,1.101,1.396,2.845,1.827,4.421c0.588,2.162,2.062,3.933,3.384,5.792c-1.417,0.677-3.359,0.556-3.877,2.601
			c-0.154,0.612-0.771,0.71-1.286,0.447c-1.299-0.667-2.87-1.081-3.604-2.429c-0.858-1.58-2.211-1.724-3.712-1.834
			c-1.995-0.146-3.983-0.163-5.983-0.03c-2.249,0.151-4.336-0.245-6.172-1.759c-1.959-1.612-4.212-2.62-6.833-2.618
			c-0.387,0-0.926-0.13-1.135-0.399c-1.899-2.454-4.796-2.655-7.457-3.3c-1.916-0.465-1.45-2.561-2.673-3.498
			c-0.399-0.307-0.322-1.185-0.558-1.76c-1.02-2.497-1.674-5.104-3.946-7.032c-1.198-1.017-2.235-2.664-1.628-4.746
			c0.378-1.296,0.162-2.749-1.261-3.604c-0.961-0.577-0.77-1.414-0.392-2.208c0.648-1.363,0.108-2.576-0.215-3.899
			c-0.307-1.253-1.047-1.616-2.073-2.032c-2.806-1.139-4.676-3.195-5.911-5.991c-1.174-2.655-2.759-5.134-5.319-6.688
			c-2.517-1.528-3.737-3.91-4.428-6.548c-0.454-1.732-0.828-3.347-2.35-4.491c-0.699-0.526-0.735-1.476-1.04-2.253
			c-0.562-1.436-0.615-3.138-2.131-4.1c-0.218-0.139-0.399-0.551-0.377-0.817c0.209-2.441-1.541-4.009-2.532-5.927
			c-0.465-0.898-1.113-1.497-1.89-2.043c-1.451-1.02-3.101-1.825-3.804-3.642c-0.104-0.267-0.383-0.609-0.632-0.656
			c-3.572-0.687-4.834-3.877-6.736-6.308c-0.912-1.167-2.007-1.189-3.052-0.937c-1.424,0.344-2.667,0.033-4.007-0.279
			c-1.175-0.274-2.282-0.748-3.625-0.565c-2.405,0.33-4.728-0.293-6.88-1.476c-1.074-0.59-2.033-0.604-2.443,0.822
			c-0.248,0.862-0.789,0.99-1.644,1.038c-4.751,0.261-6.62,1.751-7.441,6.333c-0.265,1.483-1.583,2.377-1.711,3.58
			c-0.397,3.778-4.459,4.63-5.721,7.646c-0.147,0.353-0.677,0.435-1.13,0.337c-2.024-0.444-4.131-0.994-5.708-2.231
			c-3.116-2.446-6.471-4.378-10.118-5.828c-1.893-0.751-3.723-1.526-4.565-3.557c-0.365-0.878-1.111-1.219-1.854-1.6
			c-2.903-1.486-5.268-3.415-5.886-6.874c-0.087-0.486-0.362-1.011-0.706-1.369c-1.536-1.605-1.791-3.569-1.403-5.571
			c0.413-2.133,0.123-3.909-1.417-5.518c-1.027-1.074-1.654-2.424-1.761-3.951c-0.176-2.523-1.774-3.994-3.647-5.451
			c-1.798-1.4-3.663-2.577-5.612-3.743c-1.812-1.083-3.454-2.951-4.579-4.979c-0.357-0.643-0.559-1.413-1.266-1.753
			c-2.595-1.252-3.996-3.654-5.675-5.792c-0.648-0.826-1.213-1.788-2.29-2.087c-2.881-0.8-4.115-3.094-5.045-5.584
			c-0.99-2.65-3.031-3.582-5.597-3.84c-0.627-0.063-1.252-0.146-1.879-0.198c-9.424-0.795-18.853-1.53-28.268-2.428
			c-1.697-0.161-2.289,0.257-2.363,1.889c-0.085,1.887-0.32,3.769-0.501,5.649c-0.229,2.391-0.297,2.494-2.662,2.295
			c-5.76-0.483-11.525-0.93-17.27-1.562c-12.118-1.334-24.222-2.792-36.337-4.152c-1.501-0.168-2.832-0.612-4.152-1.324
			c-22.099-11.946-44.215-23.864-66.323-35.793c-3.635-1.963-3.705-2.309-1.4-5.865c0.097-0.149,0.055-0.387,0.102-0.781
			c-2.925-0.748-5.969-0.782-8.957-1.085c-11.815-1.195-23.643-2.264-35.464-3.397c-2.603-0.249-2.6-0.28-3.083-2.836
			c-0.059-0.309-0.004-0.751-0.189-0.909c-2.183-1.856-0.992-3.933-0.742-6.144c0.354-3.113-0.185-6.245-1.959-9.064
			c-2.927-4.652-6.609-8.707-10.047-12.95c-0.96-1.185-2.138-2.126-4.052-1.034c-1.181,0.674-2.499-0.842-2.032-2.297
			c0.714-2.224-0.591-3.84-1.463-5.576c-0.364-0.725-1.278-0.663-1.999-0.698c-3.938-0.191-6.835-2.469-9.724-4.78
			c-0.416-0.334-0.878-0.691-0.909-1.237c-0.134-2.36-2.002-3.608-3.312-5.193c-0.589-0.713-1.376-1.637-2.172-1.742
			c-5.126-0.687-9.137-4.8-14.516-4.636c-1.214,0.037-2.28-0.221-2.499-1.76c-0.108-0.762-0.825-1.2-1.39-1.66
			c-0.674-0.547-0.749-1.083-0.425-1.911c0.828-2.109,1.472-4.238,0.971-6.604c-0.216-1.02,0.718-1.927,1.161-2.865
			c0.699-1.478,0.487-2.624-0.941-3.503c-0.446-0.274-0.828-0.651-1.27-0.934c-1.133-0.73-1.577-1.666-0.92-2.937
			c0.839-1.625,0.801-2.95-0.994-3.979c-0.845-0.485-0.95-1.594-1.32-2.455c-0.576-1.341-0.931-2.823-2.441-3.534
			c-0.49-0.229-0.809-0.653-0.897-1.219c-0.698-4.497-3.7-8.16-4.587-12.599c-0.117-0.584-0.465-1.227-0.903-1.629
			c-2.604-2.388-2.207-5.498-2.111-8.521c0.034-1.065,0.222-2.008,1.776-2.021c1.387-0.012,2.903-2.068,3.062-3.693
			c0.165-1.662-1.067-3.735-2.651-4.03c-2.236-0.416-3.483-1.756-4.238-3.764c-0.407-1.081-0.833-2.16-1.347-3.192
			c-0.638-1.282-0.916-2.447-0.175-3.866c0.582-1.116,0.634-2.651,0.073-3.688c-1.337-2.47,0.23-4.467,0.664-6.646
			c0.151-0.758,0.794-0.935,1.474-0.815c0.757,0.134,0.898,0.786,1.042,1.407c0.023,0.099,0.021,0.206,0.017,0.31
			c-0.185,4.012-0.185,4.012,3.451,7.611c-0.556-2.984-0.014-5.729-1.938-8.213c-0.702-0.906-0.254-2.736-0.636-4.154
			c-0.271-1.007,0.899-1.285,1.744-1.336c1.891-0.114,3.782-0.02,5.651,0.314c0.409,0.073,0.799,0.257,1.218-0.147
			c-0.172-1.671-1.436-1.487-2.54-1.337c-1.54,0.21-2.898,0.123-3.977-1.2c-0.485-0.596-0.906-1.41-2.034-0.841
			c-0.947,0.479-1.661,1.086-1.521,2.123c0.223,1.648-0.912,2.823-0.984,4.693c-1.912-1.468-3.451-2.699-4.324-4.458
			c-0.837-1.686-1.862-2.733-3.816-2.138c-0.272-1.071,0.368-1.576,0.754-2.153c0.617-0.923,1.018-1.981,0.704-2.986
			c-0.761-2.428-0.781-5.084-2.306-7.282c-2.535-3.653-4.009-7.85-5.923-11.82c-0.279-0.581-0.597-1.195-0.217-1.789
			c1.491-2.332,0.787-4.917,0.86-7.395c0.047-1.611,0.277-3.061,1.084-4.509c1.894-3.401,2.015-7.048,0.749-10.662
			c-1.137-3.247-2.184-6.498-4.169-9.459c-1.481-2.208-1.142-5.021,0.511-7.314c1.843-2.559,3.841-5.005,5.738-7.524
			c0.561-0.745,1.397-1.413,1.417-2.407c0.054-2.553,1.411-4.516,2.593-6.636c1.957-3.513,2.468-7.325,1.131-11.197
			c-0.3-0.87-0.011-1.333,0.331-1.983c1.028-1.955,1.127-3.755,0.064-5.942c-1.562-3.216-0.727-6.684,0.846-9.679
			c1.018-1.937,1.427-3.638,0.8-5.669c-0.652-2.116-0.645-4.066,1.243-5.693c0.604-0.521,0.871-1.424,1.322-2.132
			c1.888-2.959,3.196-6.187,5.793-8.824c2.37-2.407,3.666-5.851,4.885-9.108c1.989-5.316,4.488-10.447,6.347-15.779
			c1.736-4.984,4.214-9.586,6.153-14.441c0.541-1.354,0.813-2.816,1.182-4.236c0.185-0.716,0.236-1.568,1.318-1.299
			c0.499,0.125,0.574-0.189,0.545-0.453c-0.327-2.963,0.917-5.672,1.317-8.512c0.138-0.986,0.308-1.796,1.148-2.444
			c1.347-1.038,0.357-2.851,1.398-4.317c1.391,1.563,3.404,1.025,5.014,0.93c1.932-0.112,2.942,0.407,3.814,2.262
			c0.23-2.082-0.597-2.943-2.184-3.285c-1.416-0.305-2.672-1.197-4.235-0.99c-1.593,0.212-1.731-1.882-3.226-2.166
			c-0.528-0.102,0.179-1.483,0.42-2.225c0.514-1.581,0.813-3.26,2.266-4.588c-0.305,1.179-0.573,2.371-0.928,3.534
			c-0.255,0.84-0.23,1.45,0.794,1.626c1.199,0.207,0.917-0.455,0.965-1.281c0.236-4.023,0.293-4.021,2.185-6.122
			c-0.693-1.02-2.178-0.033-2.768-0.978c-0.656-1.049,0.025-2.22-0.176-3.447c1.608,0.51,2.733-0.412,4.175-0.668
			c-0.686-0.945-1.447-2.596-1.892-2.514c-2.96,0.542-1.433-1.338-1.279-2.255c0.315-1.884,0.587-3.747,0.062-5.624
			c-0.511-1.826,0.199-3.529,0.531-5.255c0.551-2.868,0.292-5.544-0.774-8.315c-1.061-2.758-1.183-5.756,0.199-8.519
			c0.613-1.227,0.723-2.614,1.437-3.98c1.115,0.251,1.962,0.774,2.704,1.517c0.743,0.744,1.588,1.411,2.216,2.243
			c3.062,4.062,7.553,5.872,11.994,7.8c1.109,0.482,2.259,0.464,3.391,0.619c1.171,0.16,2.311,0.314,3.143,1.227
			c0.941,1.033,2.046,1.309,3.303,0.682c0.515,2.33-0.26,4.715,2.121,6.345c1.214,0.831,0.477,3.888-0.996,4.44
			c-1.342,0.504-1.617,1.463-1.354,2.441c0.54,2.011,0.007,3.719-0.984,5.373c-0.493,0.822-0.593,1.477,0.174,2.213
			c0.512,0.492,0.802,0.323,1.305,0.015c0.739-0.453,2.027-0.249,1.928-1.633c-0.113-1.573,0.055-3.099,0.263-4.669
			c0.44-3.324,1.9-5.953,4.531-7.921c0.751-0.562,0.874-1.039,0.578-1.839c-0.496-1.344-1.231-2.597-1.414-4.119
			c-0.84,1.061-1.464,1.971-0.775,3.312c0.487,0.947,0.415,2.021-0.552,3.203c-1.324-1.665-2.881-2.908-2.67-5.248
			c0.073-0.811-0.122-1.7-0.411-2.474c-0.393-1.044-0.106-1.812,0.559-2.587c0.893-1.043,1.658-2.111,1.733-3.609
			c0.06-1.206,0.841-1.334,1.723-0.6c0.376,0.312,0.479,0.971,1.304,0.871c-0.187-1.48,1.52-2.318,1.105-4.172
			c-0.31-1.386,0.006-2.647-1.445-3.75c-1.215-0.925-0.876-2.752-0.519-4.104c0.305-1.152,1.496-0.846,2.433-0.578
			c3.738,1.068,7.484,2.111,11.214,3.209c33.303,9.796,67.081,17.6,101.118,24.355c22.482,4.463,45.102,8.119,67.801,11.192
			c17.593,2.382,35.229,4.512,52.934,6.04c17.065,1.471,34.135,2.844,51.238,3.686c12.487,0.615,24.991,0.871,37.488,1.274
			c12.724,0.409,25.451,0.146,38.176,0.165c18.293,0.027,36.559-0.917,54.828-1.676c1.888-0.078,3.771-0.266,5.659-0.328
			c1.31-0.041,1.922-0.58,1.803-1.928c-0.149-1.674-0.286-3.35-0.351-5.027c-0.069-1.763,0.194-1.96,2.013-1.777
			c3.073,0.309,3.142,0.291,3.941,3.409c0.779,3.042,2.062,5.949,2.247,9.161c0.1,1.702,1.588,2.195,3.013,2.098
			c1.697-0.117,3.168-0.131,4.733,0.916c0.894,0.598,2.45,0.192,3.706,0.252c0.82,0.039,1.706-0.123,2.157,0.888
			c0.324,0.724,0.411,1.897,1.506,1.72c1.413-0.229,3.171,0.025,4.106-1.262c2.436-3.344,5.762-2.314,8.901-1.961
			c1.204,0.134,2.257,1.088,3.547,1.23c0.41,0.044,0.937,0.248,0.727,0.754c-0.42,1.013,0.047,1.434,0.918,1.382
			c1.739-0.104,2.501,0.701,2.651,2.356c0.035,0.379,0.372,0.746,0.62,1.084c0.353,0.479,0.531,1.261,1.342,1.107
			c1.039-0.197,0.376-0.978,0.427-1.506c0.093-0.984,0.602-1.516,1.605-1.566c0.992-0.049,2.21-0.715,2.763,0.653
			c0.607,1.505,1.781,1.883,3.19,2.119c0.685,0.115,1.389,0.204,1.992,0.79c3.187,3.098,6.007,3.076,9.164,0.044
			c0.832-0.799,1.685-1.576,2.547-2.345c0.993-0.887,1.825-0.857,2.448,0.447c0.7,1.47,1.509,2.049,3.433,1.576
			c1.649-0.405,3.496-0.409,5.256-0.678c1.729-0.265,3.54-0.622,4.825,1.275c0.5,0.736,1.493,0.705,2.316,0.271
			c1.076-0.57,2.165-0.711,3.306-0.266c0.232,1.088-0.595,1.494-1.219,2.027c-2.91,2.49-6.294,4.176-9.757,5.717
			c-1.163,0.517-2.24,1.117-3.19,1.984c-3.487,3.188-7.026,6.292-9.593,10.369c-2.931,4.654-6.678,8.634-10.898,12.168
			c-0.58,0.484-1.793,0.976-1.183,1.904c0.604,0.916,1.692,1.688,2.994,1.141c2.321-0.979,4.654-1.943,6.904-3.07
			c2.724-1.365,5.361-2.9,8.046-4.345c0.724-0.39,1.48-1.004,2.315-0.338c0.798,0.638,0.419,1.547,0.335,2.355
			c-0.181,1.753-0.949,3.419-0.858,5.554c1.939-1.32,3.754-1.12,5.691-0.35c1.283,0.51,2.654,0.205,3.912-0.581
			c2.402-1.503,4.963-2.786,6.57-5.271c0.759-1.173,1.931-1.519,3.219-1.717c3.071-0.477,6.001-1.219,7.536-4.37
			c0.256-0.522,0.791-0.637,1.327-0.715c1.411-0.207,2.297-0.943,2.453-2.432c0.021-0.194,0.134-0.436,0.284-0.552
			c2.999-2.322,5.058-5.528,7.701-8.182c2.172-2.18,5.154-2.123,7.889-2.715c0.632-0.137,1.335,0.128,1.526,0.822
			c0.163,0.588-0.368,0.906-0.851,1.148c-4.551,2.287-6.693,6.479-8.531,10.88c-0.484,1.161-0.427,2.415-0.028,3.512
			c0.521,0.236,0.814,0.054,1.002-0.177c3.034-3.715,6.869-3.098,10.795-2.022c0.867,0.238,1.389,0.91,1.936,1.549
			c0.891,1.037,1.781,2.074,2.677,3.107c2.271,2.624,3.389,3.021,6.462,1.733c1.104-0.463,1.887-0.717,2.796,0.172
			c0.57,0.559,1.312,0.855,1.932,0.172c1.118-1.229,2.639,1.062,3.688-0.51c0.697-1.045,1.356-2.16,2.244-3.025
			c2.883-2.799,6.475-4.198,10.398-4.637c2.447-0.271,4.755-0.668,6.701-2.325c1.416-1.206,3.18-1.454,5.32-1.792
			c-0.754,2.334,0.303,4.275,0.328,6.517c1.855-0.146,3.716,0.769,5.488-0.438c0.152-0.104,0.493-0.172,0.594-0.083
			c1.476,1.304,2.432,0.169,3.477-0.685c1.152-0.943,2.105-0.795,2.746,0.609c0.774,1.703,2.629,3.058,1.5,5.504
			c1.941-0.321,3.588-0.32,4.063,1.868c0.02,0.089,0.151,0.148,0.204,0.237c0.472,0.814,2.342,0.436,1.96,1.62
			c-0.421,1.31-2.029,0.599-3.091,0.781c-1.748,0.301-3.569,0.142-5.28,0.777c-0.288,0.106-0.62,0.091-0.931,0.137
			c-0.986,0.144-1.964-1.297-2.893-0.159c-0.703,0.862-0.177,2.044-0.384,3.061c-0.04,0.199-0.146,0.387-0.227,0.591
			c-1.277,0.501-2.264-0.22-3.153-0.903c-2.5-1.92-5.418-2.089-8.375-2.227c-1.188-0.055-2.048,0.316-2.471,1.473
			c-0.55,1.502-1.514,2.332-3.182,2.636c-1.768,0.322-3.317,1.314-5.303,1.194c-1.511-0.092-3.148,0.641-3.158,2.768
			c-0.004,0.676-0.478,1.155-0.881,1.631c-1.21,1.423-2.558,2.742-2.963,4.785c-2.305-1.32-0.337-2.785-0.63-4.033
			c-1.423-0.714-2.397-0.205-3.181,1.033c-0.498,0.79-0.945,1.712-1.991,1.9c-3.054,0.553-3.879,2.949-4.416,5.458
			c-0.379,1.772-0.954,3.432-1.83,4.998c-1.088,1.942-1.966,3.924-1.885,6.237c0.031,0.918-0.118,1.789-1.025,2.487
			c-3.039,2.339-3.655,5.798-4.06,9.325c-0.062,0.541-0.157,1.036,0.515,1.268c0.638,0.221,0.955-0.168,1.285-0.603
			c1.37-1.8,3.069-3.388,3.503-5.776c0.088-0.475,0.436-1.178,0.804-1.282c3.183-0.901,3.418-3.925,4.047-6.247
			c0.57-2.104,2.423-3.33,2.781-5.413c0.066-0.384,0.594-0.562,1.046-0.466c0.481,0.102,0.852,0.578,0.662,0.893
			c-0.939,1.564-0.858,3.408-1.264,5.072c-1.275,5.227-4.15,10.021-4.233,15.559c-0.011,0.734-0.183,1.488-0.066,2.199
			c0.376,2.289,0.417,4.297-0.986,6.512c-0.96,1.513-0.974,3.957-0.326,5.856c1.172,3.431,0.119,6.664-0.614,9.868
			c-0.469,2.049-0.455,3.977,0.007,5.898c0.745,3.107,1.475,6.204,3.103,9.073c1.021,1.802,0.672,4.154,0.597,6.194
			c-0.146,3.98,0.724,7.399,3.354,10.472c0.907,1.059,1.152,2.674,1.736,4.02c0.893,2.049,1.922,3.959,4.242,4.788
			c1.355,0.484,2.741,0.668,3.961-0.025c2.723-1.551,5.548-2.958,7.483-5.637c1.129-1.562,2.125-3.113,2.435-5.034
			c0.269-1.673,0.769-3.249,1.592-4.751c0.976-1.781,1.314-3.779,1.432-5.774c0.434-7.307-0.753-14.234-4.923-20.454
			c-0.932-1.392-1.689-2.904-2.501-4.377c-1.026-1.861-1.821-3.625-0.646-5.887c0.885-1.7-0.269-3.564-1-5.094
			c-0.674-1.405-0.774-2.406-0.065-3.755c1.883-3.579,2.343-7.368,1.294-11.306c-0.354-1.334-0.816-2.656,0.956-3.456
			c1.086-0.491,0.911-1.547,0.785-2.493c-0.138-1.012-0.004-1.953,0.956-2.469c2.68-1.439,4.171-3.727,4.945-6.585
			c0.072-0.271,0.392-0.475,0.685-0.813c1.139,0.831,0.496,1.949,0.44,2.852c-0.119,1.908-0.141,3.779,0.491,5.611
			c0.209,0.609,0.402,1.211,1.242,1.143c0.64-0.05,0.928-0.507,1.074-1.002c0.667-2.216,1.297-4.444,0.742-6.8
			c-0.19-0.817-0.377-1.639-0.507-2.467c-0.372-2.348,0.037-3.021,2.109-4.344c1.157-0.739,2.53-0.967,3.657-1.61
			c0.006-1.021-0.797-0.918-1.269-1.232c-1.634-1.082-2.129-2.568-1.081-4.228c0.665-1.053,0.438-2.571,1.737-3.243
			c1.69-0.871,3.335-1.764,5.282-0.491c1.336,0.872,2.734,1.245,4.464,0.644c1.623-0.563,3.069,0.373,4.05,1.763
			c0.444,0.628,0.818,1.292,1.704,1.101c2.515-0.543,4.53,1.213,6.875,1.466c0.483,0.052,0.925,0.433,1.491,0.347
			c1.62-0.248,2.565,0.672,3.155,2.004c0.306,0.693,0.716,1.283,1.206,1.826c0.738,0.818,0.818,1.37-0.004,2.381
			c-1.178,1.451-0.923,2.69,0.658,3.652c1.726,1.051,2.418,2.709,2.801,4.387c0.604,2.654,0.539,5.419,0.481,8.15
			c-0.011,0.561-0.206,1.092-0.66,1.365c-1.799,1.083-2.001,2.844-1.979,4.65c0.024,2.115-0.843,3.547-2.721,4.568
			c-1.984,1.082-2.365,3.2-1.323,6.035c0.354,0.966,3.417,2.453,4.557,2.178c0.284-0.068,0.681-0.23,0.772-0.453
			c0.974-2.407,3.446-4.048,3.581-6.863c0.07-1.43,0.85-2.283,1.952-3.018c0.873-0.583,1.67-1.275,2.521-1.894
			c2.05-1.487,3.861-1.397,5.532,0.535c1.295,1.499,2.489,3.11,3.235,5.007c2.111,5.374,3.93,10.852,6.248,16.16
			c1.063,2.438,0.783,5.524,0.821,8.32c0.018,1.374-1.279,1.577-2.347,1.08c-1.533-0.714-2.182,0.034-2.475,1.326
			c-0.322,1.415-0.881,2.781-0.657,4.321c0.15,1.031,0.026,2.228-1.059,2.78c-2.057,1.048-2.396,2.972-2.234,4.832
			c0.259,2.994-0.851,5.522-2.011,8.101c-0.385,0.852-0.685,1.741-1.059,2.706c0.758,0.817,1.779,0.704,2.625,0.969
			c0.695,0.218,1.479,0.16,2.164,0.398c1.287,0.444,2.505,1.091,3.797,1.512c1.193,0.387,2.396-0.851,3.743-0.072
			c-0.239,1.421-1.931,1.054-2.575,2.146c0.818,0.571,1.601,0.1,2.298-0.15c1.004-0.359,2.004-0.796,3.056-0.436
			c1.907,0.653,3.481-0.008,5.047-1.009c1.328-0.85,2.709-1.611,4.073-2.405c0.816-0.475,1.622-1.019,2.618-0.977
			c4.097,0.179,6.229-2.526,8.038-5.577c0.825-1.392,1.803-2.539,3.102-3.493c6.942-5.105,13.973-10.098,20.309-15.981
			c2.775-2.58,5.529-5.143,7.548-8.405c0.482-0.779,1.262-1.402,1.983-2c0.758-0.63,1.388-1.333,1.533-2.305
			c0.23-1.522,0.92-2.779,1.966-3.866c0.865-0.896,0.877-1.781,0.186-2.819c-0.516-0.773-1.3-1.551-1.219-2.508
			c0.124-1.468-0.569-1.715-1.809-1.856c-2.121-0.24-1.17-2.379-1.912-3.522c-0.528-0.812,0.469-1.218,1.075-1.603
			c5.4-3.415,11.234-5.662,17.582-6.516c0.937-0.126,1.979-0.491,2.803-0.049c2.327,1.254,4.308,0.611,6.458-0.537
			c1.453-0.776,3.19-1.02,4.796-1.517c2.802-0.864,5.002-2.407,6.364-5.138c0.842-1.686,2.086-3.106,3.74-4.18
			c1.938-1.255,2.073-2.012,1.176-4.2c-0.279-0.68-0.607-1.341-0.947-1.993c-0.562-1.086-0.606-2.156-0.245-3.344
			c0.715-2.334,0.227-2.934-2.19-2.705c-0.711,0.067-1.254,0.029-1.61-0.587c-0.329-0.568,0.139-0.974,0.421-1.389
			c0.764-1.134,1.557-2.249,2.312-3.389c1.607-2.427,3.001-4.813,3.81-7.788c0.965-3.548,3.073-6.888,5.395-9.896
			c3.388-4.391,7.861-6.902,13.198-8.592c9.807-3.106,19.413-6.85,29.091-10.357c4.048-1.468,8.088-2.965,12.097-4.542
			c3.001-1.181,3.606-2.278,3.322-5.405c-0.223-2.428,0.207-3.042,2.464-3.23c0.584-0.049,0.928-0.188,1.281-0.658
			c1.709-2.273,1.725-2.262,3.939-1.533c0.288-0.836,0.225-1.637-0.159-2.435c-0.233-0.485-0.413-1.208,0.161-1.38
			c1.601-0.479,1.488-0.943,0.609-2.268c-0.964-1.453,0.072-3.265,0.903-4.363c1.643-2.17,0.759-4.922,2.136-7.055
			c0.134-0.205,0.095-0.791-0.042-0.863c-2.464-1.305-1.255-4.122-2.478-6.026c-0.755-1.176-0.518-3.102,0.32-4.552
			c0.857-1.482,0.927-3.006,0.36-4.545c-0.951-2.582-0.621-5.141-0.107-7.739c1.059-5.362,2.032-10.739,3.084-16.103
			c0.331-1.699,1.858-2.535,3.164-1.816c0.7,0.385,0.841,1.17,1.188,1.803c0.454,0.828,0.814,1.688,1.934,1.888
			c0.974,0.173,1.768,0.247,2.554-0.62c1.46-1.612,2.609-3.6,4.847-4.364c0.172-0.059,0.303-0.275,0.427-0.438
			c1.664-2.188,1.596-1.916,4.04-1.316c5.275,1.294,8.212,4.5,10.038,9.598c2.265,6.314,5.318,12.344,8.019,18.5
			c0.334,0.763,0.715,1.539,0.85,2.345c0.191,1.141,0.162,2.862,1.204,2.987c1.396,0.168,2.759,0.821,4.284,0.467
			c2.114-0.49,2.213-0.367,2.304,2.004c0.022,0.629,0.222,1.011,0.62,1.301c0.855,0.623,1.158,1.433,1.107,2.451
			c-0.048,0.927,0.524,1.59,1.116,2.183c0.84,0.842,1.72,1.692,2.762,0.157c0.59-0.869,1.587-0.826,2.236-0.305
			c1.207,0.973,2.836,2.023,2.892,3.546c0.055,1.548,0.664,1.753,1.789,1.867c1.186,0.122,1.342,0.81,0.967,1.774
			c-0.381,0.979-0.762,1.959-1.171,2.926c-0.296,0.699-0.751,1.478-1.521,1.451c-2.627-0.086-3.276,1.859-3.979,3.717
			c-0.229,0.607-0.309,1.305-1.015,1.436c-3.347,0.616-3.299,3.647-4.402,6.053c-1.322-0.139-2.624-2.561-4.172-0.377
			c-0.006,0.701,0.586,0.479,0.902,0.658c1.84,1.045,1.925,1.096,0.8,2.99c-0.374,0.631,0.159,1.993-1.13,1.877
			c-1.209-0.111-1.133-1.365-1.42-2.216c-0.266-0.786,0.205-2.295-1.316-1.844c-0.981,0.291-1.523,1.397-1.037,2.614
			c0.263,0.66,0.896,1.215,0.581,2.076c-1.296,0.687-2.585-0.615-3.969-0.022c-0.812,0.349-0.898-0.616-1.068-1.179
			c-0.327-1.084,0.253-2.32-0.848-3.747c-0.284,1.388-0.456,2.513-1.105,3.474c-0.814,1.202,0.275,2.421,0.278,3.654
			c0.008,1.257-0.112,2.521,0.27,3.752c0.386,1.251,0.271,2.448-0.169,3.696c-0.942,2.672-0.954,2.718-3.686,1.581
			c-0.749,0.653-0.444,1.547-0.47,2.338c-0.03,0.898-0.336,1.631-0.948,2.261c-0.804,0.827-1.55,1.22-2.036-0.276
			c-0.164-0.51-0.342-1.001-1.004-1.037c-0.549,0.959-0.262,1.86,0.33,2.64c0.959,1.264,0.29,2.1-0.643,2.938
			c-0.969,0.013-0.588-1.306-1.617-1.347c-0.411,0.195,0.068,2.571-1.657,0.877c-0.496-0.49-0.903-0.053-1.274,0.369
			c-1.152,1.312-1.368,2.896-0.926,4.438c0.338,1.18,0.654,2.159-0.259,3.192c-0.542,0.616-0.33,1.378-0.196,2.112
			c0.176,0.975,0.035,2.145-0.577,2.699c-1.583,1.437-1.411,3.201-1.316,4.953c0.099,1.814-0.237,3.105-2.408,3.103
			c-0.258,0-0.516,0.277-0.777,0.429c0.541,1.282,1.675-0.484,2.274,0.535c0.515,0.871,0.525,1.869,0.477,2.742
			c-0.125,2.158,1.307,3.469,2.341,5.011c0.298,0.444,0.7,0.746,1.3,0.736c0.532-0.008,1.264-0.654,1.525,0.386
			c0.172,0.681,0.007,1.34-0.625,1.629c-2.373,1.089-1.957,3.766-3.175,5.514c-0.3,0.43-0.104,1.23-0.08,1.857
			c0.049,1.268,0.793,1.648,1.918,1.34c3.099-0.849,3.897-0.809,5.37,1.688c1.291,2.188,3.596,3.311,4.891,5.549
			c0.938,1.622,3.234,1.194,4.964,0.615c1.563-0.525,2.847-1.727,3.067-3.311c0.271-1.929-1.528-2.845-2.849-3.818
			c-0.535-0.394-1.374-0.377-2.171-0.57c0.545-1.193,1.406-1.174,2.273-0.72c2.332,1.222,3.878,3.197,4.849,5.581
			c0.472,1.157,0.202,2.242-1.089,2.92c-1.207,0.634-2.277,1.564-3.527,2.074c-1.579,0.645-2.014,2.342-3.369,3.181
			c-2.151,1.334-2.394,1.28-2.891-1.218c-0.058-0.291-0.175-0.569-0.34-1.092c-1.643,0.969-3.071,2.509-3.472,3.838
			c-0.972,3.223-3.324,4.289-6.083,5.371c-0.366-1.727-0.482-3.326,0.856-5.039c-1.335,0-2.277,0-3.182,0
			c-0.661,1.555,0.031,2.941,0.43,4.336c0.579,2.024,0.206,3.645-1.521,5.01c-3.419,2.705-7.499,4.105-11.3,6.068
			c-3.042,1.57-6.202,2.728-9.365,3.944c-0.357,0.138-0.686,0.51-0.895,0.854c-1.732,2.85-4.286,4.92-6.841,6.91
			c-2.715,2.112-4.44,4.616-4.568,8.097c1.136,0.03,0.739-1.029,1.09-1.564c1.46-2.223,3.912-2.882,6.163-3.788
			c1.162-0.468,2.305-0.675,3.144-1.845c1.007-1.406,2.745-1.938,4.344-2.41c2.638-0.78,4.749-2.133,6.099-4.585
			c0.246-0.443,0.656-0.794,1.143-1.367c0.782,2.217-1.434,3.344-1.671,5.112c1.491,0.189,1.927-0.772,2.31-1.541
			c1.146-2.311,2.936-3.176,5.426-2.73l-0.062-0.064c-1.932,3.161-4.699,5.51-7.567,7.76c-0.817,0.643-1.674,1.208-2.446,1.944
			c-1.216,1.162-2.023,3.19-4.41,2.529c-0.409-0.113-1.053,0.603-1.581,0.945c-3.091,1.999-6.176,4.002-9.267,5.998
			c-0.616,0.397-1.204,0.924-1.883,1.122c-1.394,0.404-2.88,0.738-3.593-1.438c0.295,2.486-0.203,4.413-2.473,5.352
			c0.341,0.822,0.823,0.841,1.383,0.788c2.922-0.273,4.495,0.948,4.83,3.781c0.219,1.863,0.52,3.692,0.152,5.62
			c-0.287,1.517-0.254,3.151,0.109,4.704c0.572,2.438,0.509,4.753-0.885,6.955c-0.879,1.39-1.651,2.857-1.27,4.625
			c0.039,0.18-0.021,0.475-0.148,0.582c-2.443,2.063-1.821,5.185-2.67,7.79c-0.428,1.318-1.062,2.498-1.721,3.686
			c-0.169,0.302-0.441,0.37-0.781,0.329c-0.425-0.052-0.449-0.389-0.52-0.675c-0.049-0.199-0.009-0.418-0.02-0.628
			c-0.158-3.433-0.161-3.446-3.562-2.807c-0.421,0.08-0.823,0.209-1.218,0.035c-3.071-1.344-6.248-2.483-8.954-4.537
			c-0.211-0.158-0.229-0.567-0.319-0.807c-0.062,1.828-0.144,1.946,1.436,3.045c1.96,1.365,2.97,3.232,4.152,5.259
			c1.455,2.49,2.999,5.59,6.643,5.907c0.772,0.068,1.032,0.588,1.271,1.188c0.695,1.759,1.389,3.519,2.109,5.268
			c0.291,0.706,0.479,1.32-0.086,2.039c-1.063,1.351-0.703,2.717,0.174,4.023l0.002-0.004c-1.917,1.604-2.471,3.885-2.664,6.159
			c-0.127,1.479-0.337,2.895-0.72,4.313c-1.277,4.742-1.839,9.688-4.022,14.175c-0.344,0.707-0.115,1.434-0.016,2.162
			c0.156,1.123,0.236,2.256,0.383,3.722c-1.55-0.725-2.021-1.915-2.157-2.896c-0.337-2.442-0.937-5.106-0.293-7.356
			c0.643-2.248,0.495-4.772,1.981-6.822c0.781-1.08-1.257-1.975-0.354-3.129c-1.052-0.699-1.911,0.466-2.8-0.035
			c-0.069-0.076-0.212-0.169-0.198-0.23c0.294-1.421,0.785-2.644-1.253-3.546c-0.918-0.407-1.146-2.373-1.702-3.67
			c-2.143,2.468-2.601,2.573-5.134,1.18c-0.734-0.405-1.46-0.833-2.168-1.281c-0.486-0.307-0.645-0.783-0.583-1.356
			c0.159-1.509,1.282-3.218,2.607-3.938c-1.623-2.804-3.115-3.211-5.317-1.017c0.478-1.469-0.479-3.324,2.143-2.725
			c0.621,0.144,1.34-2.727,0.636-3.223c-1.227-0.867-1.997-1.703-1.497-3.3c0.133-0.427-0.189-0.733-0.746-0.665
			c-1.484,0.188-1.552-0.856-1.352-1.818c0.363-1.734,0.579-3.626,2.032-4.847c1.019-0.854,0.837-1.84,0.751-2.858
			c-0.076-0.93-0.639-1.693-1.557-1.705c-1.007-0.013-0.917,0.978-0.938,1.678c-0.062,1.993-0.678,3.499-2.952,3.753
			c-0.46,0.051-0.661,0.424-0.73,0.889c-0.135,0.915,0.469,1.901-0.208,2.749c-0.585,0.732-1.953,0.065-2.327,1.232
			c0.04,0.11,0.057,0.279,0.116,0.298c3.95,1.176,3.559,4.527,3.255,7.365c-0.403,3.796,1.03,6.657,3.344,9.334
			c0.273,0.315,0.566,0.651,0.921,0.855c1.479,0.854-0.944,2.741,0.964,3.481c1.289,0.501,1.946,1.539,2.167,2.877
			c0.053,0.309,0.128,0.614,0.202,0.955c-1.063,0.756-1.787-0.217-2.534-0.577c-1.446-0.696-2.853-1.366-4.502-0.911
			c-1.896,0.522-2.439-1.292-3.768-2.16c-0.66,1.354-1.46,2.001-2.54,0.273c-0.908-1.453-1.828-0.166-2.682,0.188
			c-2.078,0.863-2.246,0.83-3.017-1.161c-0.046-0.116,0.172-0.335,0.248-0.521c-0.211-1.054,0.87-2.075-0.032-3.424
			c-0.663,1.362-0.877,2.418,0.103,3.457c-1.437,0.534-1.184,1.446-0.521,2.417c0.567,0.829,1.211,1.492,2.309,0.75
			c0.346-0.234,0.74-0.398,1.066-0.654c0.939-0.732,1.765-0.61,2.368,0.376c1.328,2.172,3.327,2.536,5.659,2.386
			c1.721-0.11,3.579-0.428,4.59,1.732c0.198,0.425,1.299,0.464,1.997,0.605c0.921,0.187,1.848,0.304,2.71,0.732
			c0.67,0.333,1.667,0.759,1.289,1.481c-0.996,1.914,0.966,3.971-0.375,5.673c-0.565,0.716-1.762,0.442-2.692,0.508
			c-1.163-2.604-3.675-3.268-6.035-4.148C891.485,323.69,892.952,325.891,895.688,326.206z M672.809,552.578
			c-0.485-0.767-1.181-1.396-1.958-1.481c-2.148-0.228-4.014-0.982-5.854-2.103c-1.296-0.787-2.943-0.767-4.093,0.413
			c-1.015,1.042-1.862,2.296-2.571,3.573c-0.727,1.306-0.102,2.502,1.438,2.803c1.227,0.24,2.508,0.186,3.763,0.275
			c1.889,0.135,3.564-0.154,4.575-2.03c0.297-0.55,0.739-1.136,1.492-0.76C670.879,553.907,671.74,552.908,672.809,552.578z
			 M104.18,95.624c-2.779-1.101-2.791-1.106-3.976,1.257c-0.26,0.516-0.852,0.961-0.458,1.738
			C102.577,99.593,102.456,96.396,104.18,95.624z M586.308,569.623c0.602-0.557,0.999-1.107,1.537-1.385
			c1.303-0.671,1.054-1.889,1.16-2.959c0.065-0.669-0.6-1.044-0.949-0.583C587.005,566.09,585.823,567.524,586.308,569.623z"/>
	</g>
</g>

<g>

	<circle class="st2" cx="178.812" cy="271.081">
		<animate attributeType="xml" attributeName="r" from="0" to="79.971" begin="1s" dur="10s" repeatCount="indefinite"/>
	</circle>

	<circle class="st2" cx="878.783" cy="333.081">
		<animate attributeType="xml" attributeName="r" from="0" to="106.029" begin="1s" dur="15s" repeatCount="indefinite" />
	</circle>

	<circle class="st2" cx="831.159" cy="407.661">
		<animate attributeType="xml" attributeName="r" from="0" to="74.58" begin="2s" dur="13s" repeatCount="indefinite" />
	</circle>

	<circle class="st2" cx="463.652" cy="469.661">
		<animate attributeType="xml" attributeName="r" from="0" to="295.247" begin="2.5s" dur="10s" repeatCount="indefinite" />
	</circle>

	<circle class="st2" cx="109.174" cy="429.676" >
			<animate attributeType="xml" attributeName="r" from="0" to="271.435" begin="3s" dur="20s" repeatCount="indefinite" />
	</circle>

	<circle class="st2" cx="614.16" cy="227.053" >
		<animate attributeType="xml" attributeName="r" from="0" to="127.145" begin="3s" dur="16s" repeatCount="indefinite" />
	</circle>

	<circle class="st2" cx="303.261" cy="249.966" >
		<animate attributeType="xml" attributeName="r" from="0" to="151.667" begin="3s" dur="10s" repeatCount="indefinite" />
	</circle>

	<circle class="st2" cx="93.449" cy="114.733" >
		<animate attributeType="xml" attributeName="r" from="0" to="455.71" begin="4s" dur="8s" repeatCount="indefinite" />
	</circle>

	<circle class="st2" cx="643.362" cy="543.342" >
		<animate attributeType="xml" attributeName="r" from="0" to="422.232" begin="4s" dur="5s" repeatCount="indefinite" />
	</circle>

	<circle class="st2" cx="368.406" cy="132.705" >
		<animate attributeType="xml" attributeName="r" from="0" to="106.029" begin="4s" dur="20s" repeatCount="indefinite" />
	</circle>

	<circle class="st2" cx="327.521" cy="412.604" >
		<animate attributeType="xml" attributeName="r" from="0" to="300" begin="5s" dur="16s" repeatCount="indefinite" />
	</circle>

	<circle class="st2" cx="614.159" cy="404.966" >
		<animate attributeType="xml" attributeName="r" from="0" to="264.695" begin="5s" dur="12s" repeatCount="indefinite" />
	</circle>

	<circle class="st2" cx="942.58" cy="174.937" >
		<animate attributeType="xml" attributeName="r" from="0" to="142.232" begin="5s" dur="5s" repeatCount="indefinite" />
	</circle>

</g>

</svg>
